<svg width="20" height="20" viewBox="0 0 20 20" fill="none" xmlns="http://www.w3.org/2000/svg">
<g clip-path="url(#clip0_81_48741)">
<path d="M2.66744 5.16715H4.49126C4.85123 6.49158 6.21668 7.27344 7.54112 6.91348C8.39175 6.68228 9.05625 6.01779 9.28744 5.16715H17.3326C17.7008 5.16715 17.9992 4.86871 17.9992 4.50056C17.9992 4.13241 17.7008 3.83397 17.3326 3.83397H9.28744C8.92748 2.50951 7.56202 1.72765 6.23759 2.08762C5.38695 2.31881 4.72246 2.98331 4.49126 3.83394H2.66744C2.29929 3.83394 2.00085 4.13238 2.00085 4.50053C2.00085 4.86868 2.29929 5.16715 2.66744 5.16715Z" fill="#858D9D"/>
<path d="M17.3326 9.33374H15.5088C15.1496 8.0095 13.7849 7.2272 12.4606 7.58642C11.6093 7.81736 10.9442 8.48239 10.7133 9.33374H2.66744C2.29929 9.33374 2.00085 9.63218 2.00085 10.0003C2.00085 10.3685 2.29929 10.6669 2.66744 10.6669H10.7133C11.0725 11.9912 12.4373 12.7735 13.7615 12.4143C14.6128 12.1833 15.2779 11.5183 15.5088 10.6669H17.3326C17.7008 10.6669 17.9992 10.3685 17.9992 10.0003C17.9992 9.63218 17.7008 9.33374 17.3326 9.33374Z" fill="#858D9D"/>
<path d="M17.3326 14.8328H9.28744C8.92748 13.5084 7.56202 12.7266 6.23759 13.0865C5.38695 13.3177 4.72246 13.9822 4.49126 14.8328H2.66744C2.29929 14.8328 2.00085 15.1313 2.00085 15.4994C2.00085 15.8676 2.29929 16.166 2.66744 16.166H4.49126C4.85123 17.4904 6.21668 18.2723 7.54112 17.9123C8.39175 17.6811 9.05625 17.0167 9.28744 16.166H17.3326C17.7008 16.166 17.9992 15.8676 17.9992 15.4994C17.9992 15.1313 17.7008 14.8328 17.3326 14.8328Z" fill="#858D9D"/>
</g>
<defs>
<clipPath id="clip0_81_48741">
<rect width="16" height="16" fill="white" transform="translate(2 2)"/>
</clipPath>
</defs>
</svg>
