<svg width="20" height="20" viewBox="0 0 20 20" fill="none" xmlns="http://www.w3.org/2000/svg">
<path d="M10.86 14.3933L7.14003 10.6667C7.01586 10.5418 6.94617 10.3728 6.94617 10.1967C6.94617 10.0205 7.01586 9.85158 7.14003 9.72667L10.86 6.00001C10.9533 5.90599 11.0724 5.84187 11.2022 5.81582C11.3321 5.78977 11.4667 5.80298 11.589 5.85376C11.7113 5.90454 11.8157 5.99058 11.8889 6.10093C11.9621 6.21128 12.0008 6.34092 12 6.47334V13.92C12.0008 14.0524 11.9621 14.1821 11.8889 14.2924C11.8157 14.4028 11.7113 14.4888 11.589 14.5396C11.4667 14.5904 11.3321 14.6036 11.2022 14.5775C11.0724 14.5515 10.9533 14.4874 10.86 14.3933Z" fill="#2086BF"/>
</svg>
