<svg width="24" height="24" viewBox="0 0 24 24" fill="none" xmlns="http://www.w3.org/2000/svg">
<g clip-path="url(#clip0_1062_1012)">
<path d="M13.4999 8.25V3.345C14.1937 3.607 14.8239 4.01348 15.3487 4.5375L17.9617 7.152C18.4863 7.67616 18.8931 8.30617 19.1549 9H14.2499C14.051 9 13.8603 8.92098 13.7196 8.78033C13.579 8.63968 13.4999 8.44891 13.4999 8.25ZM19.4999 10.8637V17.25C19.4987 18.2442 19.1033 19.1973 18.4003 19.9003C17.6973 20.6033 16.7441 20.9988 15.7499 21H8.24994C7.25574 20.9988 6.30261 20.6033 5.5996 19.9003C4.8966 19.1973 4.50113 18.2442 4.49994 17.25V6.75C4.50113 5.7558 4.8966 4.80267 5.5996 4.09966C6.30261 3.39666 7.25574 3.00119 8.24994 3L11.6362 3C11.7584 3 11.8792 3.00975 11.9999 3.018V8.25C11.9999 8.84674 12.237 9.41903 12.6589 9.84099C13.0809 10.2629 13.6532 10.5 14.2499 10.5H19.4819C19.4902 10.6207 19.4999 10.7415 19.4999 10.8637ZM15.5429 13.7332C15.4058 13.5893 15.2172 13.5057 15.0185 13.5008C14.8198 13.4959 14.6273 13.5701 14.4832 13.707L11.7832 16.2803C11.711 16.3528 11.6248 16.4099 11.5298 16.4479C11.4348 16.4859 11.333 16.504 11.2307 16.5012C11.1284 16.4984 11.0278 16.4747 10.935 16.4315C10.8422 16.3884 10.7592 16.3267 10.6912 16.2502L9.49944 15.1898C9.42587 15.1242 9.34009 15.0737 9.24702 15.0412C9.15394 15.0088 9.05539 14.995 8.95698 15.0006C8.75824 15.012 8.57216 15.1019 8.43969 15.2505C8.37409 15.3241 8.32363 15.4098 8.29119 15.5029C8.25874 15.596 8.24494 15.6945 8.25058 15.793C8.26198 15.9917 8.35185 16.1778 8.50044 16.3102L9.65844 17.3407C10.0782 17.7606 10.6469 17.9975 11.2406 17.9999C11.8342 18.0023 12.4048 17.77 12.8279 17.3535L15.5167 14.793C15.6606 14.6559 15.7442 14.4673 15.7491 14.2686C15.754 14.0698 15.6799 13.8773 15.5429 13.7332Z" fill="#858D9D"/>
</g>
<defs>
<clipPath id="clip0_1062_1012">
<rect width="18" height="18" fill="white" transform="translate(3 3)"/>
</clipPath>
</defs>
</svg>
